#N canvas 363 56 1299 780 10;
#X text 36 5 arg1: unique number;
#X text 36 25 arg2: 0: 16ths 1: 8ths 2: quarters 3: swing 12ths;
#X obj 160 533 outlet;
#X text 444 420 play the recorded sequence;
#X obj 670 447 r \$0-led;
#X obj 670 489 outlet led;
#N canvas 166 50 1459 844 write-the-txt 0;
#X obj 20 24 inlet x;
#X obj 90 24 inlet y;
#X obj 261 27 inlet notes;
#X obj 90 156 i;
#X text 325 52 hold note longer than 500 delete;
#N canvas 26 50 766 473 check-for-hold 0;
#X obj 149 29 inlet;
#X obj 220 444 outlet;
#X obj 220 372 f;
#X msg 312 263 stop;
#X obj 149 150 unpack;
#X obj 188 218 sel 0;
#X obj 220 245 bang;
#X obj 220 293 t b f;
#X obj 188 182 t f b;
#X obj 220 344 del 500;
#X msg 220 267 1;
#X obj 149 51 t a a;
#X obj 181 74 stripnote;
#X obj 181 96 pack 0 0;
#X obj 63 376 outlet;
#X connect 0 0 11 0;
#X connect 2 0 1 0;
#X connect 3 0 9 0;
#X connect 4 1 8 0;
#X connect 5 1 6 0;
#X connect 6 0 10 0;
#X connect 7 0 9 0;
#X connect 7 1 2 1;
#X connect 8 0 5 0;
#X connect 8 1 3 0;
#X connect 9 0 2 0;
#X connect 10 0 7 0;
#X connect 11 0 4 0;
#X connect 11 1 12 0;
#X connect 12 0 13 0;
#X connect 12 1 13 1;
#X connect 13 0 14 0;
#X restore 261 148 pd check-for-hold;
#X obj 423 206 s \$0-led;
#X obj 815 192 r saveState;
#X obj 815 234 \$1;
#X obj 905 211 bng 15 250 50 0 empty empty empty 17 7 0 10 -262144
-1 -1;
#X obj 855 290 \$1;
#X obj 855 262 loadbang;
#X obj 622 28 bng 15 250 50 0 empty empty empty 17 7 0 10 -262144 -1
-1;
#X obj 838 441 array define xyseq-\$1-place 128;
#X msg 838 328 write \$1place.txt;
#X msg 848 356 read \$1place.txt;
#X obj 352 318 t b a;
#X obj 295 378 +;
#X obj 90 126 * 7;
#X msg 660 250 const 0;
#X msg 377 204 0;
#X obj 200 423 tabwrite xyseq-\$1-place;
#X obj 20 158 i;
#X obj 377 176 t b f, f 7;
#X obj 619 66 t b;
#X obj 261 232 unpack 0 0;
#X obj 833 64 inlet clear;
#X obj 20 125 * 7;
#X obj 366 355 * 8;
#X connect 0 0 27 0;
#X connect 1 0 18 0;
#X connect 2 0 5 0;
#X connect 3 0 16 0;
#X connect 5 0 25 0;
#X connect 5 1 23 0;
#X connect 7 0 8 0;
#X connect 8 0 14 0;
#X connect 9 0 8 0;
#X connect 10 0 15 0;
#X connect 11 0 10 0;
#X connect 12 0 24 0;
#X connect 14 0 13 0;
#X connect 15 0 13 0;
#X connect 16 0 17 0;
#X connect 16 1 28 0;
#X connect 17 0 21 1;
#X connect 18 0 3 0;
#X connect 19 0 13 0;
#X connect 20 0 21 0;
#X connect 22 0 17 0;
#X connect 23 0 20 0;
#X connect 23 1 6 0;
#X connect 24 0 19 0;
#X connect 25 0 21 0;
#X connect 26 0 24 0;
#X connect 27 0 22 0;
#X connect 28 0 17 1;
#X restore 55 187 pd write-the-txt - - - - - - - - - - -;
#X obj 295 532 outlet;
#N canvas 129 50 1635 928 play-the-txts 0;
#X obj 342 895 outlet;
#X obj 530 67 sel 0 1, f 10;
#X obj 374 837 bag;
#X msg 400 805 flush;
#X obj 342 807 t a a;
#X obj 374 859 pack 0 0;
#X obj 582 305 s \$0-flush;
#X obj 400 779 r \$0-flush;
#X obj 342 87 r cg-beat-clock;
#X obj 675 69 loadbang;
#X msg 675 126 1;
#N canvas 4 50 1905 999 seq-clocker 0;
#N canvas 9 50 1241 632 clock-control 0;
#X obj 15 63 inlet;
#X obj 297 57 inlet;
#X obj 400 57 inlet;
#X obj 188 432 outlet;
#X obj 516 55 inlet;
#X text 343 58 stop;
#X text 446 58 start;
#X obj 403 442 outlet;
#X text 248 433 beat clock out;
#X text 558 57 start on next beat;
#X obj 695 58 inlet;
#X text 742 57 loop ctrl;
#X obj 836 58 inlet;
#X text 57 60 beat clock in;
#X obj 298 98 bang;
#X obj 398 89 bang;
#X obj 516 85 bang;
#X msg 299 124 0;
#X obj 414 124 t b b;
#X obj 423 322 t b b;
#N canvas 502 270 450 300 wait-for-next-beat 0;
#X obj 109 71 inlet;
#X obj 211 67 inlet;
#X obj 118 215 outlet;
#X obj 114 137 == 1;
#X obj 114 115 i 0;
#X obj 114 162 sel 1;
#X obj 114 184 t b b;
#X msg 166 152 0;
#X msg 203 92 1;
#X connect 0 0 4 0;
#X connect 1 0 8 0;
#X connect 3 0 5 0;
#X connect 4 0 3 0;
#X connect 5 0 6 0;
#X connect 6 0 2 0;
#X connect 6 1 7 0;
#X connect 7 0 4 1;
#X connect 8 0 4 1;
#X restore 386 297 pd wait-for-next-beat;
#X msg 467 360 1;
#X msg 445 156 1;
#X obj 773 437 outlet;
#X text 833 436 spigot control;
#X obj 748 234 spigot 1;
#X obj 798 184 ==;
#X obj 756 271 bang;
#X msg 757 297 0;
#X text 813 234 if loop off \, shut off seq clock output at end;
#X text 883 56 seq end in;
#X text 460 443 seq clock start;
#X obj 40 98 t f f;
#X obj 169 179 <;
#X obj 169 205 sel 1;
#X obj 172 144 t f f;
#X text 212 187 bang on next rollover \, top of beat;
#X connect 0 0 32 0;
#X connect 1 0 14 0;
#X connect 2 0 15 0;
#X connect 4 0 16 0;
#X connect 10 0 26 0;
#X connect 12 0 25 0;
#X connect 14 0 17 0;
#X connect 15 0 18 0;
#X connect 16 0 20 1;
#X connect 17 0 23 0;
#X connect 18 0 7 0;
#X connect 18 1 22 0;
#X connect 19 0 7 0;
#X connect 19 1 21 0;
#X connect 20 0 19 0;
#X connect 21 0 23 0;
#X connect 22 0 23 0;
#X connect 25 0 27 0;
#X connect 26 0 25 1;
#X connect 27 0 28 0;
#X connect 28 0 23 0;
#X connect 32 0 3 0;
#X connect 32 1 35 0;
#X connect 33 0 34 0;
#X connect 34 0 20 0;
#X connect 35 0 33 1;
#X connect 35 1 33 0;
#X restore 211 199 pd clock-control;
#X obj 457 97 tgl 15 0 empty empty empty 17 7 0 10 -262144 -1 -1 1
1;
#X text 284 22 start;
#X text 347 19 start on next beat;
#X text 531 23 loop;
#X obj 236 342 spigot;
#N canvas 226 50 1124 809 clocker 0;
#X obj 312 332 wrap;
#X floatatom 339 413 5 0 0 0 - - -, f 5;
#X obj 458 134 t b b;
#X obj 453 82 bng 15 250 50 0 empty empty empty 17 7 0 10 -262144 -1
-1;
#X floatatom 936 330 5 0 0 0 - - -, f 5;
#X obj 312 310 - 0;
#X obj 314 215 f;
#X obj 312 355 t f f;
#X obj 273 690 outlet;
#X obj 271 608 + 1;
#X obj 453 53 inlet;
#X obj 993 50 inlet;
#X text 1040 51 length;
#X obj 311 61 inlet;
#X obj 352 688 outlet;
#X text 40 321 derive an internal beat clock from the master by offsetting
phase., f 34;
#X text 392 538 bang at end;
#X obj 332 506 >= 4;
#X obj 312 438 + 0;
#X text 47 609 send out seq clock. for the last value send out 1 cause
if looping this would be where it wraps around., f 33;
#N canvas 0 50 450 300 wait-for-next-tick 0;
#X obj 109 71 inlet;
#X obj 211 67 inlet;
#X obj 118 215 outlet;
#X obj 114 137 == 1;
#X obj 114 115 i 0;
#X obj 114 162 sel 1;
#X obj 114 184 t b b;
#X msg 166 152 0;
#X msg 203 92 1;
#X connect 0 0 4 0;
#X connect 1 0 8 0;
#X connect 3 0 5 0;
#X connect 4 0 3 0;
#X connect 5 0 6 0;
#X connect 6 0 2 0;
#X connect 6 1 7 0;
#X connect 7 0 4 1;
#X connect 8 0 4 1;
#X restore 313 176 pd wait-for-next-tick;
#X text 503 50 start;
#X obj 517 165 t b b;
#X obj 340 536 sel 1 0;
#X obj 290 572 f;
#X obj 312 467 t f f;
#X msg 319 611 1;
#X obj 402 665 s \$0-loop;
#X obj 515 137 r \$0-loop;
#X obj 473 618 f;
#X obj 473 643 - 4;
#X obj 347 248 f;
#X obj 347 281 - 0;
#X obj 345 573 t b b b b;
#X obj 303 103 t f b f f;
#N canvas 80 99 660 336 count-beats 0;
#X obj 175 216 + 1;
#X msg 230 99 0;
#X obj 126 152 <;
#X obj 126 178 sel 1;
#X obj 129 117 t f f;
#X obj 141 219 i 1;
#X text 225 151 when current value is lees than previous value the
phasor rolled over and we increment the beat count.;
#X obj 125 47 inlet;
#X obj 136 269 outlet;
#X obj 303 37 inlet;
#X text 171 44 beat clock in;
#X text 348 38 reset;
#X text 184 271 count;
#X connect 0 0 5 1;
#X connect 1 0 2 1;
#X connect 1 0 5 0;
#X connect 2 0 3 0;
#X connect 3 0 5 0;
#X connect 4 0 2 1;
#X connect 4 1 2 0;
#X connect 5 0 0 0;
#X connect 5 0 8 0;
#X connect 7 0 4 0;
#X connect 9 0 1 0;
#X restore 339 387 pd count-beats;
#X text 443 366 when phasor is reset from a start condition or rollover
\, reset beat counter., f 25;
#X text 356 64 beat clock;
#X obj 473 669 s \$0-overshoot;
#X obj 385 245 r \$0-overshoot;
#X text 87 461 add beat count to beat phase;
#X text 509 244 subtract the overshoot amount from below (the amount
the sequence clock advanced beyond the sequence length);
#X text 555 59 when we start the sequence we want the first output
to be 1 (top of first beat) \, so we wait for next tick.;
#X text 175 701 seq clock out;
#X text 432 704 bang at end of sequence. this gets sent out before
the seq clock. since the sequence clock just loops \, this is useful
for shutting off the output externally (spigot) if you just want a
seuqnce to play once;
#X floatatom 573 670 10 0 0 0 - - -, f 10;
#X text 28 55 this patch takes a 0-1 beat phase clock input and outputs
a sequence clock of arbitrary length that is syncrhonized to the input
clock., f 38;
#X text 29 159 it corrects for overshoot when the clock doesn't exactly
equal the length., f 38;
#X text 593 145 on loop \, the last value (equal to sequence length)
is acutally the top of the next loop \, so we use the previous beat
phase value as the offset.;
#X text 560 597 we can't depend on the sequence clock (which is based
on the input beat phasor) being exactly equal to the sequence length.
so if it advances past the sequence length \, subtract this overshoot
on the next loop to keep everything in sync.;
#X text 29 119 the sequence clock goes from 1 to len+1 and loops continuously
, f 38;
#X connect 0 0 7 0;
#X connect 1 0 18 1;
#X connect 2 0 20 1;
#X connect 2 1 35 1;
#X connect 3 0 2 0;
#X connect 4 0 17 1;
#X connect 4 0 30 1;
#X connect 5 0 0 0;
#X connect 6 0 5 1;
#X connect 7 0 18 0;
#X connect 7 1 35 0;
#X connect 9 0 8 0;
#X connect 10 0 3 0;
#X connect 11 0 4 0;
#X connect 13 0 34 0;
#X connect 17 0 23 0;
#X connect 18 0 25 0;
#X connect 20 0 6 0;
#X connect 22 0 31 0;
#X connect 22 1 35 1;
#X connect 23 0 33 0;
#X connect 23 1 24 0;
#X connect 24 0 9 0;
#X connect 25 0 17 0;
#X connect 25 1 24 1;
#X connect 25 1 29 1;
#X connect 26 0 8 0;
#X connect 28 0 22 0;
#X connect 29 0 30 0;
#X connect 30 0 38 0;
#X connect 30 0 45 0;
#X connect 31 0 32 0;
#X connect 32 0 5 1;
#X connect 33 0 26 0;
#X connect 33 1 14 0;
#X connect 33 2 27 0;
#X connect 33 3 29 0;
#X connect 34 0 5 0;
#X connect 34 1 20 0;
#X connect 34 2 6 1;
#X connect 34 3 31 1;
#X connect 35 0 1 0;
#X connect 39 0 32 1;
#X restore 211 281 pd clocker;
#X obj 420 461 outlet;
#X obj 323 464 outlet;
#X obj 584 63 inlet;
#X text 624 63 length;
#X obj 75 42 inlet;
#X obj 257 238 t b b;
#X obj 360 325 t b b;
#X obj 234 457 outlet;
#X text 180 491 seq clock out;
#X text 312 490 seq starting;
#X text 418 489 seq ended;
#X text 115 44 beat clock;
#X obj 228 50 inlet;
#X obj 284 48 inlet;
#X obj 368 46 inlet;
#X obj 502 45 inlet;
#X text 221 23 stop;
#X text 392 272 the clocker just loops forever. it sends out a bang
at the end of each loop that we can use to shut off its output if we
don't want a looping clock.;
#X obj 395 395 spigot;
#X obj 584 85 - 1;
#X connect 0 0 6 0;
#X connect 0 1 12 0;
#X connect 0 2 5 1;
#X connect 0 2 25 1;
#X connect 1 0 0 4;
#X connect 5 0 14 0;
#X connect 6 0 5 0;
#X connect 6 1 13 0;
#X connect 9 0 26 0;
#X connect 11 0 0 0;
#X connect 12 0 6 1;
#X connect 12 1 8 0;
#X connect 13 0 0 5;
#X connect 13 1 25 0;
#X connect 19 0 0 1;
#X connect 20 0 0 2;
#X connect 21 0 0 3;
#X connect 22 0 1 0;
#X connect 25 0 7 0;
#X connect 26 0 6 2;
#X restore 342 150 pd seq-clocker - - - - - - - - - - - - - - - - -
- - - - - - - -;
#X obj 597 106 t b;
#X text 1055 281 bang knobs evey loop to preserve where they are set
too;
#X floatatom 838 193 5 0 0 0 - - -, f 5;
#X obj 550 270 t b b;
#X obj 1069 141 s length-\$0;
#X obj 759 122 r length-\$0;
#X obj 530 36 inlet;
#X msg 550 353 1;
#X obj 773 591 +, f 5;
#X obj 773 465 t a b, f 8;
#X msg 826 494 0;
#X obj 773 529 f;
#X obj 814 529 + 1;
#X obj 773 495 until;
#X obj 1069 83 loadbang;
#X msg 1069 105 5;
#X obj 342 265 sel 0;
#X obj 342 193 * 100;
#X obj 342 215 i;
#X obj 342 643 +, f 14;
#X obj 342 517 t a b, f 8;
#X msg 395 546 0;
#X obj 342 581 f;
#X obj 383 581 + 1;
#X obj 342 547 until;
#X msg 342 493 8;
#X obj 773 643 tabread xyseq-\$1-place;
#X obj 342 675 tabread xyseq-\$1-place;
#X obj 805 715 makenote 100 100;
#X obj 342 728 makenote 100 100;
#X obj 557 661 r xyseq-\$1-noteLen;
#X obj 805 741 pack 0 0, f 17;
#X obj 342 752 pack 0 0, f 15;
#X obj 773 387 % 8;
#X obj 342 697 sel 0;
#X obj 773 665 sel 0;
#X obj 805 894 outlet;
#X obj 837 836 bag;
#X msg 863 804 flush;
#X obj 805 806 t a a;
#X obj 837 858 pack 0 0;
#X obj 863 778 r \$0-flush;
#X obj 342 241 % 50;
#X msg 773 443 8;
#X obj 873 519 * 8;
#X obj 342 603 * 8;
#X obj 342 435 % 6;
#X obj 411 411 r xyseq-\$1-xcount;
#X obj 816 367 r xyseq-\$1-ycount;
#X obj 773 342 f, f 7;
#X obj 867 342 + 1;
#X obj 342 286 t b b, f 7;
#X obj 342 408 f;
#X obj 376 408 + 1;
#X obj 342 467 t b a a, f 20;
#X obj 990 873 outlet;
#X obj 1127 872 outlet;
#X obj 773 415 t b a a, f 11;
#X msg 819 281 0;
#X obj 537 102 t b b;
#X connect 1 0 12 0;
#X connect 1 1 71 0;
#X connect 1 2 12 0;
#X connect 2 0 5 0;
#X connect 3 0 2 0;
#X connect 4 0 0 0;
#X connect 4 1 2 0;
#X connect 5 0 0 0;
#X connect 7 0 3 0;
#X connect 8 0 11 0;
#X connect 9 0 10 0;
#X connect 10 0 11 4;
#X connect 11 0 29 0;
#X connect 11 1 15 0;
#X connect 11 2 15 0;
#X connect 12 0 11 1;
#X connect 15 0 19 0;
#X connect 15 1 6 0;
#X connect 17 0 11 5;
#X connect 17 0 14 0;
#X connect 18 0 1 0;
#X connect 20 0 38 0;
#X connect 21 0 25 0;
#X connect 21 1 22 0;
#X connect 22 0 23 1;
#X connect 23 0 24 0;
#X connect 23 0 20 0;
#X connect 24 0 23 1;
#X connect 25 0 23 0;
#X connect 26 0 27 0;
#X connect 27 0 16 0;
#X connect 28 0 63 0;
#X connect 29 0 30 0;
#X connect 30 0 54 0;
#X connect 31 0 39 0;
#X connect 32 0 36 0;
#X connect 32 1 33 0;
#X connect 33 0 34 1;
#X connect 34 0 35 0;
#X connect 34 0 57 0;
#X connect 35 0 34 1;
#X connect 36 0 34 0;
#X connect 37 0 32 0;
#X connect 38 0 47 0;
#X connect 39 0 46 0;
#X connect 40 0 43 0;
#X connect 40 1 43 1;
#X connect 41 0 44 0;
#X connect 41 1 44 1;
#X connect 42 0 41 2;
#X connect 42 0 40 2;
#X connect 43 0 51 0;
#X connect 44 0 4 0;
#X connect 45 0 69 0;
#X connect 46 1 41 0;
#X connect 47 1 40 0;
#X connect 49 0 52 0;
#X connect 50 0 49 0;
#X connect 51 0 48 0;
#X connect 51 1 49 0;
#X connect 52 0 48 0;
#X connect 53 0 50 0;
#X connect 54 0 28 0;
#X connect 55 0 21 0;
#X connect 56 0 20 1;
#X connect 57 0 31 0;
#X connect 58 0 66 0;
#X connect 59 0 58 1;
#X connect 60 0 45 1;
#X connect 61 0 62 0;
#X connect 61 0 45 0;
#X connect 62 0 61 1;
#X connect 63 0 64 0;
#X connect 63 1 61 0;
#X connect 64 0 65 0;
#X connect 64 0 58 0;
#X connect 65 0 64 1;
#X connect 66 0 37 0;
#X connect 66 1 31 1;
#X connect 66 2 67 0;
#X connect 69 0 55 0;
#X connect 69 1 56 0;
#X connect 69 2 68 0;
#X connect 70 0 64 1;
#X connect 70 0 61 1;
#X connect 71 0 11 3;
#X connect 71 1 70 0;
#X restore 160 419 pd play-the-txts - - - -- - - - - - - -;
#N canvas 65 111 1653 825 print-this-stuff- 0;
#X text 847 294 print a grid of empty circles(for loop);
#X obj 707 301 until;
#X obj 707 272 t a b;
#X obj 707 332 f, f 7;
#X obj 775 345 + 1;
#X msg 753 301 0;
#X obj 1134 501 t f f, f 11;
#X obj 1208 525 sel 0;
#X obj 1208 550 f, f 7;
#X obj 1266 507 + 1;
#X obj 1208 594 i;
#X obj 1134 665 pack;
#X obj 1134 770 s oscOut;
#X msg 938 338 /oled/gFlip 3;
#X obj 112 -1 inlet x;
#X obj 177 -1 inlet y;
#X obj 177 219 t b a;
#X obj 187 691 s oscOut;
#X obj 227 570 list;
#X msg 227 544 69;
#X obj 227 592 route 69;
#X obj 167 492 t b a a b;
#X msg 81 566 /oled/gFlip 3;
#X obj 107 290 pack;
#X msg 258 624 /oled/gCircle 3 \$1 \$2 3 0;
#X msg 188 656 /oled/gCircle 3 \$1 \$2 3 1;
#X msg 1134 708 /oled/gCircle 3 \$1 \$2 2 1;
#X obj 1208 571 * 7;
#X obj 1134 590 i;
#X obj 221 166 i;
#X obj 111 206 i;
#X obj 110 186 * 7;
#X obj 177 21 * 7;
#X obj 177 43 i;
#X obj 110 46 i;
#X obj 221 143 * 7;
#X obj 1134 568 * 7;
#X obj 1208 616 + 7;
#N canvas 638 172 835 734 highlight-lines-inverted 0;
#X obj 150 656 s oscOut;
#X text 175 434 x lines;
#X obj 451 667 s oscOut;
#X msg 21 319 /oled/gFlip 3;
#X obj 470 233 * 7;
#X obj 471 293 i;
#X obj 157 220 * 7;
#X obj 157 264 i;
#X obj 471 351 t f f b;
#X obj 514 399 f;
#X obj 156 317 t f f b;
#X obj 196 367 f;
#X obj 472 314 + 7;
#X msg 249 317 -1;
#X obj 560 21 inlet erase history;
#X obj 197 545 t f f;
#X obj 106 431 t f f;
#X msg 212 271 18;
#X obj 537 545 t f f;
#X obj 446 431 t f f;
#X msg 446 461 /oled/gLine 3 0 \$1 3 \$1 1;
#X msg 569 608 /oled/gLine 3 60 \$1 64 \$1 0;
#X msg 538 574 /oled/gLine 3 0 \$1 3 \$1 0;
#X msg 479 487 /oled/gLine 3 60 \$1 64 \$1 1;
#X msg 139 488 /oled/gLine 3 \$1 60 \$1 63 1;
#X msg 228 608 /oled/gLine 3 \$1 60 \$1 63 0;
#X msg 197 577 /oled/gLine 3 \$1 0 \$1 3 0;
#X msg 106 461 /oled/gLine 3 \$1 0 \$1 3 1;
#X obj 158 286 + 7;
#X obj 285 7 inlet y;
#X obj 143 6 inlet x;
#X obj 108 141 t b f;
#X obj 299 135 t b f;
#X connect 3 0 0 0;
#X connect 4 0 5 0;
#X connect 5 0 12 0;
#X connect 6 0 7 0;
#X connect 7 0 28 0;
#X connect 8 0 19 0;
#X connect 8 1 9 1;
#X connect 8 2 9 0;
#X connect 9 0 18 0;
#X connect 10 0 16 0;
#X connect 10 1 11 1;
#X connect 10 2 11 0;
#X connect 11 0 15 0;
#X connect 12 0 8 0;
#X connect 13 0 11 1;
#X connect 13 0 9 1;
#X connect 14 0 13 0;
#X connect 15 0 26 0;
#X connect 15 1 25 0;
#X connect 16 0 27 0;
#X connect 16 1 24 0;
#X connect 17 0 10 0;
#X connect 18 0 22 0;
#X connect 18 1 21 0;
#X connect 19 0 20 0;
#X connect 19 1 23 0;
#X connect 20 0 2 0;
#X connect 21 0 2 0;
#X connect 22 0 2 0;
#X connect 23 0 2 0;
#X connect 24 0 0 0;
#X connect 25 0 0 0;
#X connect 26 0 0 0;
#X connect 27 0 0 0;
#X connect 28 0 10 0;
#X connect 29 0 32 0;
#X connect 30 0 31 0;
#X connect 31 0 3 0;
#X connect 31 1 6 0;
#X connect 32 0 3 0;
#X connect 32 1 4 0;
#X restore 1346 312 pd highlight-lines-inverted;
#X obj 1039 238 s oscOut;
#X msg 1039 154 /oled/gShowInfoBar 3 0;
#X obj 221 188 + 7;
#X msg 707 723 /oled/gFillArea 3 \$1 \$2 3 3 1;
#X obj 707 668 list;
#X msg 707 642 68;
#X obj 707 690 route 68;
#X obj 860 637 list;
#X msg 860 611 68;
#X obj 860 659 route 68;
#X msg 860 692 /oled/gFillArea 3 \$1 \$2 3 3 0;
#X obj 709 553 t b;
#X obj 1134 397 until;
#X obj 1134 368 t a b;
#X obj 1134 428 f, f 7;
#X obj 1228 428 + 1;
#X msg 1180 397 0;
#X obj 922 416 t f f, f 11;
#X obj 996 440 sel 0;
#X obj 996 465 f, f 7;
#X obj 1068 464 + 1;
#X obj 996 509 i;
#X obj 996 486 * 7;
#X obj 922 505 i;
#X obj 922 483 * 7;
#X obj 922 580 pack;
#X obj 707 354 t f f;
#X obj 446 13 inlet notes;
#N canvas 24 50 766 473 check-for-hold 0;
#X obj 149 29 inlet;
#X obj 220 444 outlet;
#X obj 220 372 f;
#X msg 312 263 stop;
#X obj 149 150 unpack;
#X obj 188 218 sel 0;
#X obj 220 245 bang;
#X obj 220 293 t b f;
#X obj 188 182 t f b;
#X obj 220 344 del 500;
#X msg 220 267 1;
#X obj 149 51 t a a;
#X obj 181 74 stripnote;
#X obj 181 96 pack 0 0;
#X obj 63 376 outlet;
#X connect 0 0 11 0;
#X connect 2 0 1 0;
#X connect 3 0 9 0;
#X connect 4 1 8 0;
#X connect 5 1 6 0;
#X connect 6 0 10 0;
#X connect 7 0 9 0;
#X connect 7 1 2 1;
#X connect 8 0 5 0;
#X connect 8 1 3 0;
#X connect 9 0 2 0;
#X connect 10 0 7 0;
#X connect 11 0 4 0;
#X connect 11 1 12 0;
#X connect 12 0 13 0;
#X connect 12 1 13 1;
#X connect 13 0 14 0;
#X restore 339 188 pd check-for-hold;
#X obj 339 437 list;
#X msg 339 371 68;
#X obj 455 278 list;
#X msg 455 252 68;
#X obj 455 300 route 68;
#X obj 339 459 route 68;
#X msg 339 485 /oled/gFillArea 3 \$1 \$2 3 3 1;
#X obj 376 565 s oscOut;
#X obj 339 507 t b a, f 8;
#X msg 339 540 /oled/gFlip 3;
#X obj 483 409 s oscOut;
#X obj 455 351 t b a;
#X msg 446 384 /oled/gFlip 3;
#X msg 455 329 /oled/gFillArea 3 \$1 \$2 3 3 0;
#X obj 193 301 unpack;
#X obj 193 323 - 1;
#X obj 232 323 - 1;
#X obj 193 347 pack, f 6;
#X obj 107 312 t a a;
#X obj 193 369 t a a;
#X obj 758 106 del 1;
#X obj 735 3 bng 15 250 50 0 empty empty empty 17 7 0 10 -262144 -1
-1;
#X obj 1180 110 loadbang;
#X obj 1474 147 bng 15 250 50 0 empty empty empty 17 7 0 10 -262144
-1 -1;
#X obj 1538 120 loadbang;
#X obj 996 531 + 6;
#X obj 707 461 tabread xyseq-\$1-place;
#X obj 720 140 del 50;
#X obj 735 71 t b b b b b b, f 23;
#X obj 932 12 inlet print;
#X obj 707 490 sel 0;
#X msg 707 243 64;
#X msg 1134 339 64;
#X obj 1134 470 % 8;
#X obj 922 385 % 8;
#X obj 110 24 * 7;
#X msg 965 55 /oled/gFillArea 3 0 0 64 64 0;
#X obj 111 228 + 7;
#X obj 1134 612 + 7;
#X obj 922 528 + 6;
#X obj 1346 21 inlet xplayhead;
#X obj 1469 21 inlet yplayhead, f 46;
#X connect 1 0 3 0;
#X connect 2 0 1 0;
#X connect 2 1 5 0;
#X connect 3 0 4 0;
#X connect 3 0 65 0;
#X connect 4 0 3 1;
#X connect 5 0 3 1;
#X connect 5 0 58 1;
#X connect 6 0 36 0;
#X connect 6 1 7 0;
#X connect 7 0 8 0;
#X connect 8 0 9 0;
#X connect 8 0 27 0;
#X connect 9 0 8 1;
#X connect 10 0 37 0;
#X connect 11 0 26 0;
#X connect 13 0 12 0;
#X connect 14 0 103 0;
#X connect 15 0 32 0;
#X connect 16 0 23 0;
#X connect 16 1 23 1;
#X connect 18 0 20 0;
#X connect 19 0 18 0;
#X connect 20 0 24 0;
#X connect 21 0 22 0;
#X connect 21 1 25 0;
#X connect 21 2 18 1;
#X connect 21 3 19 0;
#X connect 22 0 17 0;
#X connect 23 0 86 0;
#X connect 24 0 17 0;
#X connect 25 0 17 0;
#X connect 26 0 12 0;
#X connect 27 0 10 0;
#X connect 28 0 106 0;
#X connect 29 0 41 0;
#X connect 30 0 105 0;
#X connect 31 0 30 0;
#X connect 32 0 33 0;
#X connect 33 0 35 0;
#X connect 34 0 31 0;
#X connect 35 0 29 0;
#X connect 36 0 28 0;
#X connect 37 0 11 1;
#X connect 40 0 39 0;
#X connect 41 0 16 0;
#X connect 42 0 12 0;
#X connect 43 0 45 0;
#X connect 44 0 43 0;
#X connect 45 0 42 0;
#X connect 46 0 48 0;
#X connect 47 0 46 0;
#X connect 48 0 49 0;
#X connect 49 0 12 0;
#X connect 50 0 44 0;
#X connect 51 0 53 0;
#X connect 52 0 51 0;
#X connect 52 1 55 0;
#X connect 53 0 54 0;
#X connect 53 0 101 0;
#X connect 54 0 53 1;
#X connect 55 0 53 1;
#X connect 55 0 8 1;
#X connect 56 0 63 0;
#X connect 56 1 57 0;
#X connect 57 0 58 0;
#X connect 58 0 59 0;
#X connect 58 0 61 0;
#X connect 59 0 58 1;
#X connect 60 0 93 0;
#X connect 61 0 60 0;
#X connect 62 0 107 0;
#X connect 63 0 62 0;
#X connect 64 0 43 1;
#X connect 64 0 46 1;
#X connect 65 0 94 0;
#X connect 65 1 102 0;
#X connect 66 0 67 0;
#X connect 67 0 69 0;
#X connect 67 1 71 0;
#X connect 68 0 73 0;
#X connect 69 0 68 0;
#X connect 70 0 72 0;
#X connect 71 0 70 0;
#X connect 72 0 81 0;
#X connect 73 0 74 0;
#X connect 74 0 76 0;
#X connect 76 0 77 0;
#X connect 76 1 75 0;
#X connect 77 0 75 0;
#X connect 79 0 80 0;
#X connect 79 1 78 0;
#X connect 80 0 78 0;
#X connect 81 0 79 0;
#X connect 82 0 83 0;
#X connect 82 1 84 0;
#X connect 83 0 85 0;
#X connect 84 0 85 1;
#X connect 85 0 87 0;
#X connect 86 0 21 0;
#X connect 86 1 82 0;
#X connect 87 0 68 1;
#X connect 87 1 70 1;
#X connect 88 0 99 0;
#X connect 89 0 96 0;
#X connect 90 0 40 0;
#X connect 91 0 38 2;
#X connect 92 0 38 2;
#X connect 93 0 64 1;
#X connect 94 0 98 0;
#X connect 95 0 13 0;
#X connect 96 0 95 0;
#X connect 96 1 88 0;
#X connect 96 2 100 0;
#X connect 96 3 38 2;
#X connect 96 4 23 0;
#X connect 96 5 104 0;
#X connect 97 0 96 0;
#X connect 98 0 47 0;
#X connect 98 1 50 0;
#X connect 99 0 2 0;
#X connect 100 0 52 0;
#X connect 101 0 6 0;
#X connect 102 0 56 0;
#X connect 103 0 34 0;
#X connect 104 0 39 0;
#X connect 105 0 23 0;
#X connect 106 0 11 0;
#X connect 107 0 64 0;
#X connect 108 0 38 0;
#X connect 109 0 38 1;
#X restore 152 278 pd print-this-stuff- - - - - - - --;
#X obj 12 62 inlet;
#X obj 12 84 route x y notes clear print aux-play decay, f 98;
#X obj 576 136 s xyseq-\$1-noteLen;
#X obj 712 310 s xyseq-\$1-xcount;
#X obj 845 310 s xyseq-\$1-ycount;
#X floatatom 712 216 5 0 0 0 - - -, f 5;
#X floatatom 845 215 5 0 0 0 - - -, f 5;
#X obj 845 249 min 8;
#X obj 845 271 max 1;
#X obj 712 255 min 8;
#X obj 712 277 max 1;
#X obj 77 655 noteout 1;
#X obj 203 656 noteout 1;
#X obj 137 603 r midiCh;
#X obj 70 612 unpack;
#X obj 215 608 unpack;
#X obj 816 56 loadbang;
#X msg 816 78 8;
#X connect 4 0 5 0;
#X connect 8 0 2 0;
#X connect 8 0 24 0;
#X connect 8 1 7 0;
#X connect 8 1 25 0;
#X connect 8 2 9 4;
#X connect 8 3 9 5;
#X connect 10 0 11 0;
#X connect 11 0 9 0;
#X connect 11 0 6 0;
#X connect 11 1 6 1;
#X connect 11 1 9 1;
#X connect 11 2 6 2;
#X connect 11 2 9 2;
#X connect 11 3 6 3;
#X connect 11 4 9 3;
#X connect 11 5 8 0;
#X connect 11 6 12 0;
#X connect 15 0 19 0;
#X connect 16 0 17 0;
#X connect 17 0 18 0;
#X connect 18 0 14 0;
#X connect 19 0 20 0;
#X connect 20 0 13 0;
#X connect 23 0 21 2;
#X connect 23 0 22 2;
#X connect 24 0 21 0;
#X connect 24 1 21 1;
#X connect 25 0 22 0;
#X connect 25 1 22 1;
#X connect 26 0 27 0;
#X connect 27 0 15 0;
#X connect 27 0 16 0;
